<svg width="56" height="56" viewBox="0 0 56 56" fill="none" xmlns="http://www.w3.org/2000/svg">
<g clip-path="url(#clip0_2307_1311)" filter="url(#filter0_d_2307_1311)">
<path fill-rule="evenodd" clip-rule="evenodd" d="M28.0199 0C14.7375 0 4 10.8167 4 24.1983C4 34.895 10.8799 43.9495 20.4241 47.1542C21.6174 47.3951 22.0545 46.6335 22.0545 45.9929C22.0545 45.4319 22.0151 43.509 22.0151 41.5055C15.3334 42.948 13.942 38.6209 13.942 38.6209C12.8682 35.8164 11.2772 35.0956 11.2772 35.0956C9.09022 33.6132 11.4365 33.6132 11.4365 33.6132C13.8623 33.7735 15.1353 36.0971 15.1353 36.0971C17.2824 39.7827 20.7422 38.7413 22.1341 38.1002C22.3328 36.5377 22.9695 35.456 23.6455 34.8552C18.3163 34.2942 12.7094 32.211 12.7094 22.9161C12.7094 20.2719 13.6632 18.1086 15.1746 16.4261C14.9361 15.8253 14.1008 13.3409 15.4135 10.0157C15.4135 10.0157 17.4417 9.3746 22.0146 12.4996C23.9725 11.9699 25.9916 11.7005 28.0199 11.6982C30.048 11.6982 32.1154 11.979 34.0246 12.4996C38.5981 9.3746 40.6262 10.0157 40.6262 10.0157C41.9389 13.3409 41.1031 15.8253 40.8646 16.4261C42.4158 18.1086 43.3303 20.2719 43.3303 22.9161C43.3303 32.211 37.7234 34.2539 32.3544 34.8552C33.2296 35.6163 33.9848 37.0583 33.9848 39.3421C33.9848 42.5871 33.9454 45.1915 33.9454 45.9924C33.9454 46.6335 34.383 47.3951 35.5758 47.1547C45.12 43.9491 51.9999 34.895 51.9999 24.1983C52.0392 10.8167 41.2624 0 28.0199 0Z" fill="white"/>
</g>
<defs>
<filter id="filter0_d_2307_1311" x="0" y="0" width="56" height="56" filterUnits="userSpaceOnUse" color-interpolation-filters="sRGB">
<feFlood flood-opacity="0" result="BackgroundImageFix"/>
<feColorMatrix in="SourceAlpha" type="matrix" values="0 0 0 0 0 0 0 0 0 0 0 0 0 0 0 0 0 0 127 0" result="hardAlpha"/>
<feOffset dy="4"/>
<feGaussianBlur stdDeviation="2"/>
<feComposite in2="hardAlpha" operator="out"/>
<feColorMatrix type="matrix" values="0 0 0 0 0 0 0 0 0 0 0 0 0 0 0 0 0 0 0.25 0"/>
<feBlend mode="normal" in2="BackgroundImageFix" result="effect1_dropShadow_2307_1311"/>
<feBlend mode="normal" in="SourceGraphic" in2="effect1_dropShadow_2307_1311" result="shape"/>
</filter>
<clipPath id="clip0_2307_1311">
<rect width="48" height="48" fill="white" transform="translate(4)"/>
</clipPath>
</defs>
</svg>
